<svg width="177" height="198" viewBox="0 0 177 198" fill="none" xmlns="http://www.w3.org/2000/svg">
<path d="M37.9286 55.6286L19.9757 35.64L31.86 22.3457L49.7286 42.4286L37.9286 55.6286ZM96.9286 0V28.2857H80.0714V0H96.9286ZM157.024 35.64L139.071 55.6286L127.271 42.4286L145.14 22.3457L157.024 35.64ZM25.2857 89.5714V108.429H0V89.5714H25.2857ZM151.714 89.5714H177V108.429H151.714V89.5714ZM37.9286 179.143H139.071C143.542 179.143 147.83 181.13 150.991 184.666C154.153 188.202 155.929 192.999 155.929 198H21.0714C21.0714 192.999 22.8474 188.202 26.0088 184.666C29.1701 181.13 33.4578 179.143 37.9286 179.143ZM88.5 37.7143C101.912 37.7143 114.775 43.6745 124.259 54.2837C133.743 64.8929 139.071 79.282 139.071 94.2857V169.714H37.9286V94.2857C37.9286 79.282 43.2566 64.8929 52.7406 54.2837C62.2246 43.6745 75.0876 37.7143 88.5 37.7143Z" fill="black"/>
</svg>
